<?xml version="1.0" standalone="no"?>
<!DOCTYPE svg PUBLIC "-//W3C//DTD SVG 20010904//EN"
 "http://www.w3.org/TR/2001/REC-SVG-20010904/DTD/svg10.dtd">
<svg version="1.0" xmlns="http://www.w3.org/2000/svg"
 width="1042.000000pt" height="1042.000000pt" viewBox="0 0 1042.000000 1042.000000"
 preserveAspectRatio="xMidYMid meet">
<metadata>
Created by potrace 1.14, written by Peter Selinger 2001-2017
</metadata>
<g transform="translate(0.000000,1042.000000) scale(0.100000,-0.100000)"
fill="#000000" stroke="none">
<path d="M0 5210 l0 -5210 5210 0 5210 0 0 5210 0 5210 -5210 0 -5210 0 0
-5210z m5680 -5 l0 -2325 -410 0 -410 0 0 1342 0 1343 -1343 -1343 -1342
-1342 -575 0 -575 0 2325 2325 c1279 1279 2326 2325 2327 2325 2 0 3 -1046 3
-2325z m2150 -390 l-1570 -1570 0 870 0 870 -175 -175 -175 -175 0 575 0 575
580 580 580 580 0 -863 c0 -474 3 -862 8 -862 4 0 527 520 1162 1155 l1155
1155 3 -572 2 -573 -1570 -1570z m-3437 -1697 l-238 -238 -575 0 -575 0 810
810 810 810 3 -572 2 -573 -237 -237z"/>
</g>
</svg>
